<svg id="Layer_1" data-name="Layer 1" xmlns="http://www.w3.org/2000/svg" viewBox="0 0 466.45 543.65"><defs><style>.cls-1{fill:#231f20;}</style></defs><path class="cls-1" d="M-2350.69-4370.24c9.33-2.28,18.94-4.18,28.71-5.64a284.61,284.61,0,0,1,29.73-2.83c5-.26,9.29-.31,11.54-.71a29.42,29.42,0,0,1,3.27-.31c1.29,0,2.74,0,4.21,0h4.36c1.39,0,2.67.05,3.72,0a51.16,51.16,0,0,1,6.19.23l6.85.78a192.88,192.88,0,0,1,32.63,6.68c2.2.48,4.14.87,5.69,1.35l6.08,2.58c.89.19,1.9.47,3,.8s2.25.88,3.47,1.39c2.42,1.05,5.07,2.2,7.58,3.41a157.15,157.15,0,0,1,41.77,30.15,180.63,180.63,0,0,1,29.86,41.25c3.8,6.88,7.08,15,10.29,20.83.56,1.07,2,4.78,3,7.29,1.4,3.85,2.83,7.68,4.19,11.54s2.62,7.76,3.82,11.68l2,6.55,1,3.27.88,3.31,1.75,6.6c.57,2.21,1.05,4.44,1.58,6.65.5,1.46,1,3.06,1.46,4.77s.83,3.55,1.23,5.43.79,3.83,1.18,5.77.68,3.92,1,5.84c.37,2.09.95,3.85,1.39,5.62.13,2,.27,4,.4,6,1.24,4,1.9,11.24,2.34,16.87.21,4.19.56,7.38.93,10.39s.58,5.85.73,9.35c.13,2.29.11,4.59.13,6.88l.05,6.89c-.05,2.3-.11,4.59-.16,6.88s-.09,4.58-.23,6.86c-.32,7.72-1.32,16.13-1.47,23,0,.84-.21,2.56-.46,4.52s-.53,4.15-.83,5.93l-1.28,8.17c-.46,2.72-1,5.42-1.51,8.13l-.79,4.07-.91,4c-.62,2.69-1.17,5.4-1.86,8.07-.94,3.6-1.72,6.69-2.17,9.48a60.9,60.9,0,0,1-3.33,10.92,48.46,48.46,0,0,0-2.82,8.65,71.44,71.44,0,0,1-2.38,7.68c-.9,2.53-1.8,4.83-2.48,6.31-1.72,3.51-3.18,6.68-4.5,9.85s-2.65,6.27-3.86,9.76c-.06.17-.49,1-1.06,2.09l-1.89,3.37c-.58,1.44-1.28,3.22-2,5-.92,1.61-2,3.27-3,4.95-.57,1.39-1.24,3-2,4.75a32.2,32.2,0,0,1-2.84,5.15,109.19,109.19,0,0,0-8,13.52,44.24,44.24,0,0,1-5,7.7,59.13,59.13,0,0,0-3.54,5c-.6.93-1.22,1.87-1.83,2.8l-1.9,2.69a92.65,92.65,0,0,1-5.73,8.87c-2.31,3.11-4.77,6.34-7.18,9.46a243.79,243.79,0,0,1-27.77,30,186.89,186.89,0,0,1-33.62,24.44c-3.24,1.74-6.55,3.74-9.88,5.18a51.71,51.71,0,0,1-9,3.5c-1.15.59-2.35,1.17-3.61,1.75s-2.52,1.2-3.9,1.66c-2.72,1-5.59,1.94-8.5,2.87s-6,1.52-9,2.26c-1.49.41-3,.64-4.52.92l-4.45.84c-3.06.67-6.19,1-9.32,1.36l-4.69.55c-1.57.14-3.15.21-4.72.31l-2.36.14-2.37.06-4.73.08c-3.16-.07-6.31-.07-9.46-.3a169.85,169.85,0,0,1-17.31-1.85q-8.59-1.39-17-3.6c-6-1.63-12-3.49-17.84-5.69s-11.52-4.65-17.06-7.37c-5.92-3-10.82-5.49-15.39-7.82a42.06,42.06,0,0,0-4-2.8c-1.4-.82-2.87-1.64-4.66-2.63a51.32,51.32,0,0,1-7.79-5.59c-.66-.56-2-1.58-3.16-2.5s-2.25-1.76-2.48-1.89c-4.77-2.8-10.72-7.89-16-12.68q-5.75-5.17-11.18-10.66c-3.61-3.68-7.13-7.43-10.54-11.29-2.65-3.05-4.2-5.09-5.89-7.41-1-1.32-3.19-3.94-4.6-5.82-4.13-5.44-7.15-7.34-11.72-14.62-1.61-2.71-3.87-5.84-6.22-9.16s-4.83-6.78-6.93-10.11c-4-6.11-7.86-12.34-11.54-18.68s-7.17-12.93-10.49-19.3c-3.63-7-4.53-10.77-8-18.15-1.42-3.22-2.92-6.56-4.28-10-.66-1.72-1.33-3.46-2-5.18s-1.35-3.45-1.95-5.19c-1.07-3-2.2-6.05-3.21-9.11s-2-6.12-2.95-9.19c-1-3.54-2.08-7.07-3-10.64l-1.38-5.35c-.46-1.78-.94-3.55-1.33-5.33-.92-4.08-1.55-7.34-2-10.78s-1.08-7-1.88-11.6c-.31-1.67-.61-3.42-.9-5.2s-.48-3.62-.71-5.47-.47-3.72-.66-5.58-.34-3.73-.51-5.57c0-9.78-1.08-22.43-.84-33.63.1-3.93.35-7.22.56-10.37s.65-6.12.93-9.43c.3-3.06.64-6.55,1-9.87s.82-6.42,1.24-8.73c1-4.92,1.8-9.18,2.84-14.48.66-3,1.48-5.48,2.2-8.54,1.12-4.26,2-8.93,3.3-13.3,2.09-7.43,4.32-15.73,7.41-22,.35-.79,1-2.43,1.74-4.28s1.5-3.94,2.28-5.6c.94-2,1.91-4.43,3-6.57s2-4.08,2.74-5.3,1.56-2.56,2.41-4,1.71-3,2.65-4.43a42.32,42.32,0,0,1,4.75-6.64c.44-.44,1.63-2.12,2.7-3.52a116.59,116.59,0,0,1,19.39-22.67c.87-.81,1.71-1.63,2.58-2.42l2.68-2.31c1.79-1.55,3.56-3.15,5.5-4.64l2.9-2.34c1-.8,2-1.61,3-2.38,2.13-1.55,4.28-3.28,6.64-4.94a188.34,188.34,0,0,1,44.12-23c.69-.25,1.39-.42,2.39-.73a23.53,23.53,0,0,1-5.18,2.27c-2.21.83-4.56,1.79-6.14,2.55a7.25,7.25,0,0,0-2.53,1.69,13,13,0,0,0,2.7-.75c.44-.14,1.61-.67,2.46-1,1.26-.52,2.51-1.09,3.73-1.53l3.45-1.27c1.78-.78,3.36-1.52,4.91-2.25l4.73-2c1.65-.65,3.39-1.41,5.45-2.09s4.41-1.38,7.18-2.16c.42.73-7.3,2.82-8.7,3.76,5.46-1.17,10.76-2.81,15.92-3.79l4-.84c1.34-.28,2.7-.46,4.05-.69l4.06-.67c1.36-.22,2.71-.46,4.07-.58l8.23-.93c3-.22,6.27-.39,10.2-.6-3.83.57-7.09,1-10.06,1.52L-2374-4364a43.67,43.67,0,0,0,4.86-.29c1.74-.16,3.54-.47,5.22-.54,7-.46,5.75.09,6.73.37.7,0,1.46,0,2.27,0s1.67,0,2.55,0c1.74,0,3.56-.07,5.23-.05.84,0,1.71,0,2.59,0l2.64.11c1.75.07,3.45.18,4.91.39l-5,.63c-1.65.21-3.25.41-4.74.75-.5.1.91.27,1.43.4,1.26,0,2.51,0,3.79,0,2.3,0,5.52,0,6.77.11,3.51.56,8.77,1.43,8.69,1.68-.18.73,4,2-4,1.85-1.42,0-1,.34-1.09.56a9.76,9.76,0,0,0-.21,1.79c-1.14,0-2.29-.07-3.45-.16s-2.33-.08-3.53-.15c-2.4-.09-4.88-.28-7.49-.18l-6,.61,4.26.15c1.41,0,2.79.1,4.09.26,2.61.28,4.92.58,6.51.93l-7.29.34c-2.42-.09-4.78,0-7.12,0l-3.5,0c-1.16,0-2.33,0-3.51,0s-2.41,0-3.68,0a33.07,33.07,0,0,0-3.92.29c-2.65.34-5.37.77-7.93,1.29-4.86,1.25-9.14,2.08-13.48,3.27l-3.3.81-1.69.41-1.71.49-7.39,2-5.82,1.81-2.95.91-2.89,1.05c-1.91.71-3.79,1.42-5.6,2.16s-3.47,1.65-5,2.5c-.73.42-2.26,1-3.91,1.77s-3.49,1.63-4.94,2.35l-2.16,1.06-2.14,1.14-4.33,2.29c-1.45.73-2.78,1.64-4.12,2.47s-2.61,1.72-3.81,2.6c-1.84,1.47-4.45,3.24-7,4.92s-4.78,3.54-6.2,4.8c-1.86,1.84-3.7,3.58-5.64,5.31s-3.81,3.64-5.89,5.61a104.47,104.47,0,0,0-16.81,21.18c-.76,1.13-1.32,2.45-1.94,3.34-.82,1.2-1.61,2.38-2.36,3.57l-2.07,3.59c-1.4,2.34-2.52,4.78-3.72,7.16s-2.22,4.88-3.38,7.37l-1.63,3.86c-.57,1.29-1.15,2.61-1.69,4-.64,1.58-1.37,3.23-2,4.94s-1.27,3.48-1.9,5.19a62.07,62.07,0,0,0-2.55,9.63c-1,3.2-1.89,6.58-2.78,9.88s-1.55,6.57-2.15,9.55c-.36,2.16-.63,4.11-1,6.2-.17,1-.34,2.12-.53,3.28s-.36,2.39-.61,3.74a49.41,49.41,0,0,0-.73,6.25,54.72,54.72,0,0,1-.71,6.75c0,1.57,0,3.59-.22,5.86s-.48,4.77-.63,7.36c-.22,3.37-.53,6.75-.6,10.14l-.18,5.08c-.07,1.69,0,3.38,0,5.08.83,13.6,1.18,29.08,3.53,43.43,2.14,13.49,4.77,27.91,9.24,40.12.59,1.58,1.37,4.77,2.19,7.17,1.05,3.23,2,6.47,3.23,9.65s2.25,6.4,3.53,9.54c1.09,2.77,2.13,5.55,3.33,8.27s2.27,5.49,3.56,8.17c2.8,6.19,5.88,12.37,8.92,18.31,1.51,2.89,2.8,5.21,4.15,7.3s2.6,4,3.9,6.29a369.74,369.74,0,0,0,25.61,38.11c5.75,7.63,12.28,16.1,18.6,22.11.6.54,1.66,1.73,2.87,3.08s2.55,2.85,3.72,4a261.09,261.09,0,0,0,20.09,18.69c1.67,1.39,3.21,2.59,4.7,3.68s2.93,2.07,4.4,3c2.93,1.93,5.91,3.87,9.67,6.43,3.57,2.48,7.47,4.83,11.43,7.09,2,1.07,4,2.21,6,3.18l3,1.49,3,1.37c5.33,2.34,10,3.8,16.46,6.15a135.65,135.65,0,0,0,18.62,5.08,138.3,138.3,0,0,0,19,2.55c6.78.38,11.86-.17,19.61-.61,1.93-.1,3.87-.38,5.83-.58a58.89,58.89,0,0,0,5.9-.81l5.88-1.11c1-.16,1.95-.44,2.91-.69l2.89-.75c3.49-.77,6.85-2,10.25-3.1l1.27-.42c.42-.15.83-.33,1.25-.49l2.49-1,2.49-1c.83-.33,1.67-.63,2.47-1,2.37-1.14,4.83-2.29,7.18-3.45a66.81,66.81,0,0,1,6.68-3.21c1.24-.59,5.14-3,7.74-4.75,3-2.1,6-4.1,8.86-6.41l2.17-1.68q1.1-.83,2.13-1.74l4.2-3.57c1.4-1.18,2.71-2.49,4.07-3.73s2.72-2.48,4-3.82l3.92-3.91,3.78-4.06a221.23,221.23,0,0,0,15.31-18.93c2.52-3.26,4.84-6.62,7.23-9.86s4.64-6.47,7-9.53a339.29,339.29,0,0,0,23.4-42.14c3.4-9.42,8.42-20.61,12.07-31.08,2.78-8.23,3.65-13.52,6.23-22.42q.8-2.9,1.61-5.9c.51-2,.94-4.07,1.41-6.13,1-4.12,1.69-8.35,2.48-12.47.06-.9.16-1.83.25-2.8s.19-2,.31-3c.24-2,.56-4.2.9-6.39s.59-4.45.88-6.69.6-4.46.74-6.62c.63-7.13,1.29-14.69.87-20.74-.09-1.19.12-4.87.15-7.36,0-12.71-.22-26.56-2.45-38.09a347.94,347.94,0,0,0-5.69-34.8c-1.16-4.84-2.18-9.89-3.53-12.78l-1.16-6c-2.77-9.76-6-20.3-10-30.35-1.07-2.79-2.24-5.17-3.38-7.76l-1.9-4c-.66-1.38-1.26-2.91-2-4.5-1.34-2.86-2.68-5.84-4.27-8.66-.77-1.43-1.52-2.88-2.31-4.3l-2.47-4.16c-.41-.69-.82-1.38-1.22-2.07s-.87-1.33-1.3-2c-.86-1.31-1.71-2.6-2.52-3.85s-1.71-2.38-2.49-3.49-1.56-2.13-2.26-3.08c-1.07-1.64-2.07-2.89-2.92-4.1s-1.63-2.25-2.49-3.26a128.89,128.89,0,0,0-26.51-23c-9.29-6.16-20.57-10.74-30-14.76-1.49-.54-3-.92-4.58-1.39s-3.05-1-4.63-1.29c-3.13-.73-6.22-1.57-9.36-2.15-1.6-.32-3.21-.67-4.84-.94l-5-.71-2.5-.35-2.53-.24-5-.51-19.55-1.29c-7.45-.05-14.93.45-22.39,1.07-3.73.41-7.47.74-11.19,1.3-1.86.27-3.72.47-5.58.79l-5.56.94a39.56,39.56,0,0,0-4.41.91,49.67,49.67,0,0,1-5.17,1.33c-1.94.49-3.81.95-4.71,1.29a32,32,0,0,1-6,1.63,41,41,0,0,0-5.33,1.06c-1.87.59-3.87,1.17-5.91,1.75s-4.1,1.23-6.1,1.85c-8,2.55-16,5.36-23.9,8.5-2.68.76-5.62,1.71-8.22,2.45a34.81,34.81,0,0,1-6.06,1.49,45.32,45.32,0,0,0-6.93,2.48c-3.63,1.79-6.37,3-9,4s-5.06,2-8.1,3.41c-4.62,2.19-8.18,3.31-9.14,3.15-.11,0-2.6,1.16-4,1.86-2.73,1.37-4.46,2.11-4.36,1.75.32-1.09-2.92-.06-11.28,4.16-5.48,2.78-2.27.42-5.63,1.92-8.25,3.71-10.13,3.8-7.31,1.2,2.52-1.63,6.76-3.58,10.31-5.54,7.92-5.16,7.65-5,1.61-3.28a20.28,20.28,0,0,0-3.76,1c-2.81,1.11-2.42.69-.12-.84,3.23-2.16,8.13-5,7.64-5.48,4.68-2.61,8.38-4.71,9.55-6s9-5,12.24-7a72.05,72.05,0,0,1,6.49-3.35c2.34-1.08,4.71-2.16,6.74-3.26,2.5-1.49.76-1.15.59-1.5s1.16-1.14,3.36-2.39c2.4-1.37,1.64-1.36-1.27-.32-2.12.76-3.06.89-.21-.43,3.36-1.57,6.2-2.82,8.1-3.94l3.54-2.11c.33-.2.32-.33-.09-.22-1.54.42-3.28,1-5.05,1.55a198.06,198.06,0,0,1,24.2-10.84c6-2.26,10.94-4.45,18.22-6.5,2.82-1.18,9-3.13,7.33-3.29S-2354.63-4368.81-2350.69-4370.24Z" transform="translate(2549.22 4379.79)"></path></svg>