<svg width="62.629517mm" height="70.552544mm" viewBox="0 0 62.629517 70.552544" xmlns="http://www.w3.org/2000/svg">
    <path d="m -1323.3001,-171.97647 26.2936,-17.96413 30.6351,19.63865 -0.4734,31.27197 -27.1859,17.71079 -29.9875,-16.44756 z" fill="#659bd3" paint-order="markers stroke fill" transform="translate(3.225814,-129.12706) translate(1323.422,319.48292)"/>
    <path d="m -1324.0182,-137.76677 c 21.0985,-9.6226 31.794,-20.82235 57.6468,-32.53517 l -0.4734,31.27195 -27.1859,17.71081 z" fill="#004283" paint-order="markers stroke fill" transform="translate(3.225814,-129.12706) translate(1323.422,319.48292)"/>
    <path d="m -1266.8448,-139.02999 c -10.3821,-5.28407 -19.1108,-9.98592 -28.5983,-14.95497 12.2752,-9.20942 19.8572,-11.7393 29.0717,-16.31698 z" fill="#00589d" paint-order="markers stroke fill" transform="translate(3.225814,-129.12706) translate(1323.422,319.48292)"/>
    <path d="m -1297.8521,-190.35444 c -2.3318,0.0238 -4.3722,1.13239 -7.6481,3.14452 -3.0453,1.87034 -8.5872,5.56326 -12.3156,8.20621 -5.2899,3.74984 -6.9294,5.28341 -7.4641,6.98408 -0.6992,2.22451 -1.4118,16.11878 -1.3658,26.67846 0.039,9.32389 -0.1275,9.13233 14.8838,17.14056 7.0776,3.7756 13.5827,7.1847 14.455,7.57526 h 0.01 c 3.3886,1.51698 4.8127,1.15533 11.6851,-2.96572 9.6984,-5.81559 18.8783,-12.42475 20.4303,-14.70917 1.2409,-1.84078 1.3023,-2.4434 1.033,-10.19783 -0.1575,-4.53276 -0.3753,-11.36086 -0.4837,-15.17272 -0.1322,-4.62724 -0.5539,-7.52784 -1.2707,-8.72712 -1.4489,-2.42522 -6.7422,-5.98588 -18.2651,-12.28606 -7.2057,-3.9397 -10.6854,-5.70206 -13.6834,-5.6715 z m 0.8289,3.57291 c 0.5808,0.0209 1.2111,0.34581 2.1998,1.06505 5.4262,3.09793 19.2513,11.60145 21.793,13.38162 4.6735,3.27319 4.9845,2.07312 4.1822,7.83828 -0.2418,2.5309 -0.413,6.99463 -0.384,9.91878 0.036,2.92418 0.041,7.41873 0.018,9.98749 -0.04,4.80367 0.3885,4.76078 -3.8886,7.47398 -2.1171,1.54207 -7.5938,5.23354 -12.1879,8.17573 l -6.2859,4.02558 c -2.01,1.28731 -2.4974,1.157 -3.6809,0.31266 -2.1426,-1.52829 -18.9105,-10.3891 -23.5386,-12.16205 -3.483,-1.33408 -2.4645,-1.48055 -2.4355,-5.42139 0.019,-2.46137 0.1228,-8.20015 0.2299,-12.75321 0.1083,-4.55332 0.061,-10.0534 -0.1039,-12.22253 -0.2376,-3.1251 -0.1028,-4.08914 0.6486,-4.64259 2.2146,-1.63068 16.3596,-10.93179 20.7832,-13.7413 1.239,-0.78679 1.9037,-1.26288 2.6505,-1.2361 z" transform="translate(3.225814,-129.12706) translate(1323.422,319.48292)"/>
    <path d="m -430.21094,3214.6641 c -15.08107,0.1141 -26.92225,4.3222 -38.89844,13.5 -20.96201,16.0649 -32.1567,64.3077 -20.20507,87.0722 2.49826,4.7577 9.25928,11.6777 15.02343,15.377 19.63087,12.5988 51.37199,10.66 70.77344,-4.3242 6.00076,-4.635 11.13999,-10.6106 11.41211,-13.2793 1.14369,-11.0914 -11.72525,-15.916 -20.76172,-7.7832 -14.22463,12.8005 -43.6605,15.173 -54.48242,4.3925 -4.64239,-4.6249 -5.18554,-7.8918 -4.13672,-24.8886 1.0235,-16.5713 2.2632,-21.1668 8.08594,-30.0039 11.96334,-18.1604 29.54006,-23.7099 53.13867,-16.7793 21.31389,6.2594 21.4926,6.2472 22.3086,-1.6582 1.25253,-12.1479 -8.48843,-18.7136 -31.25782,-21.0625 -3.86683,-0.399 -7.51981,-0.589 -11,-0.5625 z m 75.07032,46.2714 c -2.4432,0.085 -4.70448,1.4099 -4.83204,4.0723 -0.20145,4.2693 -0.48027,7.1165 -7.45312,7.1543 -7.0201,0.033 -8.01787,11.31 -0.5586,10.4473 9.11207,-1.0539 6.12336,2.8726 6.73829,7.3574 1.57682,8.179 10.57247,5.5585 13.00195,-0.9219 -0.14324,-3.1054 0.43277,-7.1473 3.42578,-6.8808 9.24624,0.8249 7.59268,-10.2592 -0.39648,-9.9844 -6.40441,0.2201 -2.99587,-1.0442 -3.76954,-6.9082 -0.38691,-2.9379 -3.38729,-4.4327 -6.15624,-4.336 z m -36.85352,1.3243 c -2.64303,-0.072 -5.77344,1.3784 -5.77344,4.1894 0,3.8497 -1.46279,5.0102 -8.27539,5.3008 -6.92183,0.2953 -6.59913,10.6346 -1.37695,10.6309 7.62482,-0.014 6.48583,-0.4769 8.85937,2.7695 l 0.64258,4.7051 c 0.44825,3.2894 7.89548,6.1603 9.57813,-0.9805 0.42708,-1.8146 -0.45905,-7.296 5.18945,-7.0605 7.69058,0.3205 8.61519,-11.0007 0.38867,-10.5469 -4.68888,0.2583 -6.1343,-2.0419 -5.6543,-6.002 0.23878,-1.9719 -1.52243,-2.9499 -3.57812,-3.0058 z" transform="translate(3.225814,-129.12706) translate(1323.422,319.48292) matrix(0.26458333,0,0,0.26458333,-1181.0218,-1022.2217)" fill="#fff"/>
</svg>
