<?xml version="1.0" ?><svg xmlns="http://www.w3.org/2000/svg" width="134.18001mm" height="97.258354mm" viewBox="0 0 134.18001 97.258354">
    <path d="m 489.2749,649.13013 c -16.05359,-0.13285 -66.97677,1.99252 -66.97677,1.99252 l -3.94321,42.68675 51.64571,-0.54137 76.32916,-0.0486 0.04,-41.4172 c 0,0 -42.61721,-2.13009 -54.37521,-2.61383 -0.73499,-0.0303 -1.64972,-0.0494 -2.71972,-0.0582 z" fill="#f2ca14" transform="translate(-38.037258,-99.870823) translate(-378.90407,-547.06291)"/>
    <path d="m 467.24358,694.74925 -47.57704,0.72818 0.99303,21.48327 11.98224,-0.42315 62.88807,-0.66562 51.79431,-1.45116 -0.8689,-19.11276 z" fill="#0031a6" transform="translate(-38.037258,-99.870823) translate(-378.90407,-547.06291)"/>
    <path d="m 547.29938,716.93741 -82.34252,2.45304 -44.3221,0.0869 0.92897,19.02588 59.09257,1.79182 65.68742,-1.47465 z" fill="#c9132a" transform="translate(-38.037258,-99.870823) translate(-378.90407,-547.06291)"/>
    <path d="m 428.45024,742.92884 c -5.06171,-0.60926 -7.96918,-2.08297 -8.32778,-4.2207 -0.10055,-0.59863 -0.53255,-1.44604 -0.96011,-1.88307 -0.94098,-0.96225 -1.23595,-3.16872 -1.35118,-13.31056 -0.048,-4.24575 -0.25404,-13.73513 -0.45781,-21.08753 -0.67715,-24.43043 -0.56103,-31.9672 0.65802,-42.56707 0.96945,-8.422 1.37387,-10.35085 2.37447,-11.30371 0.66291,-0.63195 1.58387,-0.99593 2.04613,-0.80889 0.46225,0.18709 3.76169,0.0303 7.33073,-0.34822 11.74244,-1.2453 76.41814,0.45901 101.73203,-0.0369 21.73949,-0.42582 17.63789,-0.42511 18.31638,8.65095 0.3012,4.03006 -0.20199,7.95005 0.75812,20.50995 0.96634,12.64435 -0.0881,22.60974 0.20644,30.17138 0.20421,5.18891 0.21533,13.63979 0.0222,18.77967 -0.22201,5.98974 -0.10722,6.74394 0.32345,12.2349 -0.0521,4.24455 -2.4421,4.84112 -4.482,4.4714 -1.11716,-0.21088 -3.64245,-0.18681 -5.61072,0.0535 -5.07772,0.6198 -14.90394,1.11632 -27.91926,1.41067 -6.17486,0.13957 -16.98744,-0.31682 -24.0281,0.0733 -20.10802,0.0744 -40.61246,1.42152 -60.63105,-0.78909 z m 59.9103,-4.8595 c 5.49594,-0.31949 17.56983,0.15273 26.83102,-0.0383 18.78309,-0.38725 28.02737,-0.81752 29.00839,-1.35039 0.7292,-0.39605 1.18612,-10.64302 0.74655,-15.60422 l -0.28029,-3.16316 -2.25479,0.26788 c -1.24129,0.14735 -11.94309,0.60832 -23.7834,1.02444 -11.84031,0.41608 -25.73921,0.90512 -30.88768,1.08669 -5.14757,0.18156 -21.68967,0.0896 -36.75956,-0.20435 l -27.39961,-0.53451 -0.33457,9.02467 c -0.27896,7.51845 -0.18019,8.18082 0.58995,8.41013 21.82091,0.27686 42.26173,2.22898 64.52399,1.08108 z m -30.66255,-22.66237 c 15.59399,0.0254 35.93381,-0.22027 45.19989,-0.54612 9.26653,-0.32581 22.55813,-0.73326 29.53694,-0.90539 l 12.68831,-0.31304 -0.19042,-5.39392 c -0.10455,-2.96668 -0.29987,-6.6664 -0.43423,-8.22166 l -0.2447,-2.8277 -4.76495,-0.15451 c -10.17992,-0.33003 -59.04408,-0.7951 -72.36015,-0.68881 -7.7138,0.0616 -20.85724,0.0568 -29.20815,-0.0107 l -15.18246,-0.12261 0.16061,6.61127 c 0.0881,3.63614 0.27407,8.04161 0.41421,9.78983 l 0.2536,3.17864 2.88923,-0.22085 c 11.91639,-0.1797 21.47077,-0.18811 31.24227,-0.17445 z M 442.66502,692.2758 c 5.48392,-0.004 14.74111,-0.0899 20.57206,-0.19456 5.83006,-0.10473 20.83322,-0.11945 33.34045,-0.0329 12.50768,0.0866 28.418,0.18544 35.35766,0.21952 l 12.61668,0.062 0.48539,-13.09073 c 0.26739,-7.19993 -0.327,-16.12548 0.0178,-19.81897 0.71808,-7.69711 -1.09981,-6.58195 -9.4,-6.85833 -8.42254,-0.27891 -30.66834,-0.80096 -41.64064,-0.69285 -10.97141,0.10811 -27.66121,0.22161 -37.0879,0.25213 -16.76188,0.0543 -32.72203,0.75296 -33.52732,1.46761 -0.57393,0.50982 -1.32315,22.3262 -1.07756,31.39439 l 0.20644,7.62312 5.08217,-0.16319 c 2.79491,-0.0896 9.56817,-0.16501 15.05254,-0.16733 z" fill="#030303" transform="translate(-38.037258,-99.870823) translate(-378.90407,-547.06291)"/>
</svg>