<?xml version="1.0" encoding="UTF-8" standalone="no"?>
<!-- Created with Inkscape (http://www.inkscape.org/) -->

<svg
   width="211.05185mm"
   height="289.88925mm"
   viewBox="0 0 211.05185 289.88925"
   version="1.1"
   id="svg1"
   inkscape:version="1.3.1 (9b9bdc1480, 2023-11-25, custom)"
   sodipodi:docname="music_guitar_classic_color.svg"
   xmlns:inkscape="http://www.inkscape.org/namespaces/inkscape"
   xmlns:sodipodi="http://sodipodi.sourceforge.net/DTD/sodipodi-0.dtd"
   xmlns="http://www.w3.org/2000/svg"
   xmlns:svg="http://www.w3.org/2000/svg">
  <sodipodi:namedview
     id="namedview1"
     pagecolor="#ffffff"
     bordercolor="#666666"
     borderopacity="1.0"
     inkscape:showpageshadow="2"
     inkscape:pageopacity="0.0"
     inkscape:pagecheckerboard="0"
     inkscape:deskcolor="#d1d1d1"
     inkscape:document-units="mm"
     inkscape:zoom="0.73584456"
     inkscape:cx="-180.0652"
     inkscape:cy="544.95205"
     inkscape:window-width="1868"
     inkscape:window-height="1016"
     inkscape:window-x="52"
     inkscape:window-y="265"
     inkscape:window-maximized="1"
     inkscape:current-layer="layer1" />
  <defs
     id="defs1" />
  <g
     inkscape:label="Capa 1"
     inkscape:groupmode="layer"
     id="layer1"
     transform="translate(-152.92843,-4.233329)">
    <g
       id="g94"
       transform="matrix(0.64044884,0,0,0.64044884,-1280.8765,-64.8436)">
      <path
         style="fill:#975131;fill-opacity:1;stroke:#000000;stroke-width:0;stroke-linecap:round;stroke-linejoin:round;paint-order:fill markers stroke"
         d="m 2514.7537,535.91432 c 22.8878,-10.88139 62.2954,-51.24446 43.7452,-94.71645 -18.5502,-43.472 -53.9893,-50.9228 -61.8339,-55.58626 -7.8446,-4.66347 -15.32,-17.58179 -18.7347,-39.5054 -3.4147,-21.92361 -20.396,-46.58098 -52.4204,-36.18201 -32.0244,10.39897 -48.4519,16.56333 -59.3421,25.78304 -10.8901,9.2197 -40.8842,55.53265 -12.9205,80.99407 27.9637,25.46142 30.6401,21.92361 32.0244,52.47731 1.3844,30.5537 14.4895,71.18475 41.0688,80.72607 26.5793,9.54132 72.2626,-3.85943 88.4132,-13.99037 z"
         id="path93-3" />
      <path
         style="fill:#333333;fill-opacity:1;stroke:#000000;stroke-width:0;stroke-linecap:round;stroke-linejoin:round;paint-order:fill markers stroke"
         d="m 2409.4702,388.27079 c -1.5232,-0.93672 -86.6422,-140.24881 -86.6422,-140.24881 l -37.3628,-65.51882 18.9053,-11.60502 90.7639,135.66925 40.4987,69.42187 z"
         id="path94" />
      <path
         style="fill:#a06f34;fill-opacity:1;stroke:#000000;stroke-width:0;stroke-linecap:round;stroke-linejoin:round;paint-order:fill markers stroke"
         d="m 2246.0993,142.60271 c 2.4541,-9.60247 8.1266,-19.60891 13.4222,-23.65995 5.2957,-4.05103 16.2384,-8.1124 21.6632,-2.33592 5.4248,5.77649 20.7952,51.7633 20.7952,51.7633 l -18.1119,14.27193 c 0,0 -39.7062,-34.33791 -37.7687,-40.03936 z"
         id="path92"
         sodipodi:nodetypes="cssccc" />
      <path
         style="fill:#000000"
         d="m 2399.1288,531.13986 c -12.742,-17.8562 -16.6846,-31.8282 -17.2044,-60.9695 -0.365,-20.4609 -0.4723,-21.1603 -4.0327,-26.298 -2.0117,-2.9029 -6.3658,-7.2439 -9.6758,-9.6467 -20.3603,-14.77959 -33.3859,-28.97448 -34.2881,-46.84148 -0.8483,-16.7972 11.6671,-38.65421 24.6801,-50.70211 4.2548,-3.9392 7.2476,-7.6863 6.6505,-8.3269 -1.3413,-1.4392 -45.5102,-76.9347 -63.171,-107.97481 -8.3687,-14.7085 -14.0709,-23.3078 -16.0549,-24.2118 -1.6922,-0.771 -4.308,-4.0065 -5.8129,-7.19 -1.5049,-3.1835 -4.1953,-7.1475 -5.9786,-8.8089 l -3.2423,-3.0206 -2.4321,2.6873 c -2.7979,3.0917 -6.7436,3.5293 -7.7674,0.8615 -0.3853,-1.0043 0.4083,-3.6495 1.7637,-5.8782 2.396,-3.9399 2.396,-4.114 0,-6.2804 -1.9161,-1.734 -3.0565,-1.9099 -5.143,-0.7933 -2.9334,1.5699 -6.8742,0.6565 -6.8742,-1.5932 0,-0.7805 0.9049,-2.4189 2.0108,-3.641 1.8055,-1.995 1.7229,-2.4822 -0.8088,-4.7716 -1.69,-1.5283 -4.7657,-2.5498 -7.6775,-2.5498 -3.9777,0 -4.9329,-0.5272 -5.2721,-2.9098 -0.265,-1.8615 0.5756,-3.4395 2.3334,-4.3802 1.9016,-1.0177 2.7475,-2.7929 2.7475,-5.7657 0,-7.0807 2.3683,-13.1747 6.9778,-17.9552 5.7433,-5.9563 22.4382,-16.3224 26.2877,-16.3224 1.8003,0 4.8723,1.9987 7.5277,4.8977 4.3224,4.719 4.5805,4.8124 7.0699,2.5596 1.421,-1.2861 3.9832,-2.14 5.6937,-1.8978 4.4605,0.6318 4.7711,5.4646 0.564,8.774 -3.0756,2.4192 -3.224,2.9958 -1.7657,6.8591 1.3638,3.6131 2.0911,4.1082 5.0727,3.4533 6.7714,-1.4872 8.4966,6.4857 1.7687,8.1743 -2.6254,0.6589 -3.0429,1.4081 -2.4082,4.3218 1.3567,6.2278 1.6153,6.5385 4.9182,5.9071 4.462,-0.8529 5.7227,2.8551 2.1764,6.4013 -3.7039,3.704 -2.5373,8.2005 4.7128,18.1642 7.9669,10.9489 35.3082,52.1384 65.3922,98.51301 l 25.1665,38.7943 4.3082,-2.9235 c 2.3694,-1.608 8.5645,-4.2922 13.7669,-5.965 22.6034,-7.268 47.0385,0.8637 56.1268,18.6783 3.2228,6.3172 7.968,24.9852 8.0096,31.5105 0.051,8.0481 2.5329,16.8303 5.7121,20.2151 3.7009,3.9402 16.4738,11.6166 21.1762,12.7268 5.2464,1.2386 26.4647,15.8065 33.7332,23.1603 7.8996,7.9921 11.7829,14.5991 17.6683,30.06079 4.1156,10.8122 4.6839,13.7968 4.7509,24.9481 0.086,14.3671 -2.6752,24.712 -10.8556,40.6667 -8.753,17.0716 -28.7161,34.0595 -52.2874,42.6939 -38.8998,14.24935 -75.4115,23.04978 -106.0138,-17.4111 z m 76.14,14.0891 c 20.2569,-5.2156 34.7409,-11.0342 46.2238,-18.5696 12.7309,-8.3544 20.8433,-17.2798 26.8273,-29.5161 10.2745,-21.0094 11.2282,-35.8699 3.617,-56.3596 -5.362,-14.43469 -11.142,-21.92299 -25.5749,-33.13359 -12.1504,-9.4376 -13.6574,-10.3322 -30.6332,-18.184 -16.7852,-7.7636 -18.8489,-11.1372 -22.5838,-36.9184 -4.0476,-27.94 -11.4355,-37.2647 -30.9248,-39.0319 -9.3251,-0.8456 -34.8075,4.5307 -33.8089,7.133 0.324,0.8444 7.6,12.1208 16.1689,25.0587 12.604,19.0304 15.4226,24.1499 14.7568,26.8029 -0.726,2.8927 -0.074,3.6372 5.5272,6.3131 5.1804,2.4747 7.0258,4.3672 10.017,10.2727 2.0166,3.9815 3.6866,9.3815 3.711,12 0.051,5.4929 4.0595,11.0977 7.5092,10.5 1.7524,-0.3036 2.5451,0.769 3.1486,4.2609 0.5141,2.9748 5.7907,11.5568 14.554,23.67129 l 13.7475,19.0046 4.4445,-2.7469 c 3.5301,-2.1817 5.0043,-2.4473 7.1649,-1.291 6.4951,3.4761 3.7189,6.7132 -22.7846,26.5673 -21.5451,16.1397 -27.8285,18.7424 -27.8285,11.527 0,-2.0438 2.5213,-5.0046 8.0111,-9.4078 9.3164,-7.4725 10.2111,-3.8579 -7.0931,-28.6578 -13.1081,-18.7862 -11.9375,-17.43 -13.9637,-16.1778 -1.2267,0.7582 1.6091,5.9934 10.3445,19.0969 6.619,9.9289 12.0346,18.7338 12.0346,19.5667 0,5.9338 -11.9172,-7.9861 -25.8142,-30.1525 -2.8637,-4.5678 -4.3098,-5.6667 -7.4572,-5.6667 -4.956,0 -6.2086,-1.9458 -2.7927,-4.3383 2.4265,-1.6996 2.4777,-2.0963 0.6134,-4.7579 -1.2846,-1.8341 -3.4414,-2.9038 -5.8546,-2.9038 -4.2216,0 -13.4218,-6.38629 -17.9042,-12.42799 -2.2237,-2.9973 -2.7903,-5.7056 -2.7895,-13.3333 6e-4,-5.2646 0.5548,-10.7262 1.2315,-12.1368 1.0101,-2.1056 0.8255,-2.4094 -1.0313,-1.6969 -3.3896,1.3007 -5.5228,-1.5118 -20.8679,-27.5129 l -14,-23.722 -5.0988,5.6978 c -2.8043,3.1337 -11.0778,11.27051 -14.1231,17.53171 -10.2487,21.07145 -6.2874,31.49311 -1.7443,40.6856 3.8511,7.7924 10.4802,11.26479 19.0777,19.01539 7.5455,6.8022 12.531,12.71929 16.6613,19.77519 5.2619,8.989 5.8939,10.9593 5.8939,18.3774 0,12.5891 2.5816,34.9243 4.9024,42.4135 12.1649,38.28904 41.22,52.46662 78.4852,43.3719 z m -65.7861,-107.9975 c -6.6455,-4.8141 -10.7532,-10.57019 -13.0944,-18.34949 -2.1782,-7.2374 -2.3941,-16.8324 -0.4602,-20.4459 2.1183,-3.958 3.3416,-3.0871 3.4005,2.421 0.029,2.75 1.1137,8.6 2.4094,13 1.9094,6.4835 3.726,9.3052 9.5829,14.8853 3.9748,3.78689 7.2269,7.77269 7.2269,8.85729 0,3.6254 -3.7631,3.4725 -9.0651,-0.3682 z m 56.6927,-31.63389 c -0.3416,-0.5906 -1.0547,-4.0738 -1.5846,-7.7405 -1.3922,-9.6336 -3.5885,-14.0228 -9.8391,-19.6632 -3.0455,-2.7481 -5.5372,-5.5981 -5.5372,-6.3333 0,-3.336 6.0275,-0.7696 11.8369,5.0398 5.1751,5.175 6.8224,8.0235 8.7426,15.1172 1.3013,4.8073 2.1463,9.8809 1.8779,11.2747 -0.5007,2.5999 -4.3841,4.2286 -5.4965,2.3053 z m 0.79,46.92739 c -8.4286,-12.5869 -13.4125,-18.8691 -14.6059,-18.4111 -0.9964,0.3823 -1.8117,1.1704 -1.8117,1.7513 0,0.5809 3.8133,6.3668 8.474,12.8575 4.6607,6.4908 10.4247,14.9717 12.8089,18.8465 3.4256,5.5673 4.7118,6.7322 6.132,5.5536 1.4513,-1.2045 -0.6647,-5.1677 -10.9973,-20.5978 z m 17.5468,15.3898 c 0.841,-1.3608 -23.2485,-38.6327 -25.0062,-38.6902 -3.7661,-0.1233 -1.0562,5.8718 9.8831,21.8643 6.8101,9.9558 12.8213,18.1015 13.3583,18.1015 0.537,0 1.3312,-0.574 1.7648,-1.2756 z m 8.4999,-6.2558 c 0.2554,-0.1573 -4.8446,-7.6924 -11.3333,-16.7445 -6.4887,-9.0522 -12.7065,-17.84639 -13.8174,-19.54269 -1.9639,-2.9991 -2.0821,-3.0155 -4.2744,-0.593 -2.1481,2.3736 -1.6196,3.388 11.188,21.47509 11.6979,16.5199 13.7237,18.7701 15.6077,17.3375 1.1908,-0.9055 2.3741,-1.7751 2.6294,-1.9324 z m -49.7976,-31.709 c 0,-2.89959 -1.8758,-3.88409 -4.3785,-2.29789 -2.3245,1.47319 -0.5112,5.77679 2.2129,5.25219 1.1911,-0.2294 2.1656,-1.5588 2.1656,-2.9543 z m 7.3129,-3.25609 c -0.011,-0.4603 -0.5655,-1.6982 -1.2317,-2.7511 -0.9965,-1.5747 -1.5791,-1.609 -3.2849,-0.1933 -1.5848,1.3153 -1.744,2.3369 -0.6753,4.3337 1.1155,2.08439 1.7839,2.29269 3.3053,1.03009 1.0489,-0.87049 1.8978,-1.95919 1.8866,-2.41939 z m 4.5765,-5.349 c -0.074,-1.9569 0.3298,-2.4686 1.2349,-1.5634 0.9052,0.9051 1.9233,0.8661 3.1106,-0.1194 2.3827,-1.9774 2.1825,-3.8513 -0.8304,-7.7723 l -2.5361,-3.3006 -0.9866,3.931 c -0.5427,2.162 -2.2186,4.9285 -3.7243,6.1478 -2.3611,1.9118 -2.4868,2.5191 -0.9141,4.414 2.3715,2.8576 4.7864,1.9547 4.646,-1.7371 z m -28.4065,-45.4878 c 3.0507,0 3.1605,-1.5549 0.4761,-6.7459 -2.0399,-3.9448 -2.0433,-3.9457 -6.3333,-1.7295 -2.3608,1.2195 -6.5061,3.6811 -9.2118,5.4702 l -4.9193,3.2529 2.1132,4.4315 2.1133,4.4316 6.6224,-4.5554 c 3.6423,-2.5055 7.7551,-4.5554 9.1394,-4.5554 z m -19.4516,-4.0507 c 0.4705,-0.7612 4.0949,-3.2123 8.0543,-5.4468 l 7.1988,-4.0628 -1.966,-3.802 c -1.0814,-2.091 -2.5726,-4.1767 -3.3138,-4.6349 -1.1983,-0.7405 -17.3379,9.485 -17.3379,10.9847 0,1.3502 4.6455,8.3458 5.5421,8.3458 0.5319,0 1.3521,-0.6228 1.8225,-1.384 z m 2.9196,-20.1086 4.2843,-2.7128 -3.5622,-5.564 c -1.9591,-3.0601 -3.7793,-5.8562 -4.0449,-6.2134 -0.6553,-0.8817 -17.6281,8.2571 -17.6281,9.4917 0,0.5393 1.8929,4.0257 4.2065,7.7475 l 4.2065,6.7669 4.1268,-3.4015 c 2.2698,-1.8708 6.0548,-4.6223 8.4111,-6.1144 z m -16.9509,-13.8407 c 3.814,-2.5667 7.4743,-4.6667 8.134,-4.6667 2.182,0 1.2528,-2.6923 -3.2227,-9.3382 l -4.422,-6.5663 -7.2447,4.8162 c -3.9845,2.6489 -7.531,5.0639 -7.8811,5.3666 -0.53,0.4582 6.6989,15.0551 7.4557,15.0551 0.1354,0 3.3667,-2.1 7.1808,-4.6667 z m -9.9428,-19.4935 c 4.0019,-3.0215 7.2761,-5.7343 7.2761,-6.0286 0,-0.2943 -1.5766,-2.9175 -3.5036,-5.8294 l -3.5036,-5.2944 -4.8297,2.7227 c -2.6564,1.4974 -6.2572,3.8038 -8.0019,5.1251 l -3.1721,2.4026 3.6322,6.1977 c 1.9977,3.4088 3.9008,6.1978 4.2293,6.1978 0.3284,0 3.8714,-2.4721 7.8733,-5.4935 z m -7.7239,-17.7181 c 2.3834,-1.2046 4.3334,-2.7867 4.3334,-3.5158 0,-0.7291 -1.5195,-3.7326 -3.3766,-6.6745 -2.2318,-3.5353 -3.9356,-4.9955 -5.0253,-4.3068 -6.0836,3.8451 -12.9315,8.8416 -12.9315,9.4354 0,0.3881 1.5559,3.3605 3.4574,6.6053 l 3.4575,5.8997 2.8759,-2.6266 c 1.5817,-1.4446 4.8259,-3.6121 7.2092,-4.8167 z m -12.358,-14.9472 7.2677,-4.8254 -4.0717,-5.918 -4.0717,-5.918 -3.5498,2.2952 c -1.9524,1.2623 -5.0497,3.2153 -6.883,4.3399 -1.8334,1.1246 -3.5563,2.1992 -3.8287,2.388 -0.6175,0.428 6.3726,12.4638 7.2386,12.4638 0.347,0 3.9014,-2.1715 7.8986,-4.8255 z m -10.7723,-16.3031 7.3212,-5.1287 -3.4676,-5.2047 c -1.9073,-2.8626 -3.5854,-5.365 -3.7293,-5.5608 -0.144,-0.1959 -3.5875,1.6465 -7.6522,4.0942 l -7.3906,4.4503 3.5245,6.2337 c 1.9384,3.4285 3.6478,6.2362 3.7985,6.2391 0.1508,0 3.5688,-2.3024 7.5955,-5.1231 z m -4.7478,-20.987 c 0.8315,-0.6398 -1.1316,-5.1733 -3.6604,-8.4531 l -2.4945,-3.2353 -6.8168,4.3743 c -3.7492,2.4059 -6.8167,4.7725 -6.8167,5.2592 0,0.4866 1.528,3.1336 3.3957,5.8821 l 3.3957,4.9973 6.271,-4.2372 c 3.449,-2.3305 6.4757,-4.3948 6.726,-4.5873 z m -17.907,-10.5511 c 2.4037,-1.83331 5.0282,-3.33331 5.8324,-3.33331 3.1784,0 2.8355,-2.8174 -1.1266,-9.2566 l -4.1457,-6.7375 -6.2208,4.9506 c -3.4214,2.7228 -6.4432,5.0939 -6.7152,5.2692 -0.5207,0.3356 6.8556,12.43441 7.5834,12.43861 0.2323,10e-4 2.3889,-1.4977 4.7925,-3.331 z m -4.8361,-20.57491 3.0453,-1.5674 -3.0453,-5.429 c -1.675,-2.986 -3.7623,-5.7055 -4.6387,-6.0434 -2.4121,-0.93 -13.9692,7.4847 -12.8613,9.3643 0.5135,0.8711 2.3747,3.8992 4.136,6.7292 l 3.2024,5.1455 3.5581,-3.3159 c 1.957,-1.8238 4.9285,-4.0212 6.6035,-4.8833 z m -14.6231,-13.0182 c 2.7011,-1.9762 5.4372,-4.0323 6.0802,-4.5691 1.1769,-0.9825 -3.9497,-10.5411 -5.6112,-10.4621 -0.8893,0.042 -1.6915,0.6148 -8.839,6.3076 l -3.7876,3.0167 2.5042,4.65 c 1.3773,2.5575 3.0078,4.65 3.6233,4.65 0.6155,0 3.3291,-1.6169 6.0301,-3.5931 z m -10.9654,-12.5434 c 1.3953,-1.5417 4.2073,-3.667 6.2489,-4.7228 l 3.7121,-1.9195 -2.3756,-4.0926 c -1.3066,-2.251 -3.0926,-4.3772 -3.9689,-4.7251 -1.3932,-0.5531 -13.74,6.8614 -13.74,8.251 0,1.3395 5.7098,10.0122 6.5917,10.0122 0.5472,0 2.1366,-1.2615 3.5318,-2.8032 z m -7.0813,-19.0968 c 4.4369,-3.9207 4.8758,-4.8346 3.6559,-7.6112 -0.7626,-1.7355 -3.1913,-10.3555 -5.3972,-19.1555 -3.8468,-15.3463 -8.3143,-24.5373 -13.4753,-27.7229 -1.2075,-0.7453 -5.7622,1.032 -13.4533,5.2498 -11.3086,6.2017 -11.6511,6.532 -12.4764,12.036 -1.0419,6.9473 2.2869,13.1023 9.7695,18.0642 2.7507,1.8241 9.5013,7.8388 15.0013,13.366 5.5,5.5273 10.3,10.09 10.6666,10.1394 0.3667,0.049 2.9357,-1.9152 5.7089,-4.3658 z m -23.6099,-15.559 c -4.36,-5.1815 -9.6553,-15.3963 -10.2951,-19.8598 -0.6903,-4.8153 3.4472,-5.0927 6.4059,-0.4295 1.308,2.0616 4.6921,6.864 7.5202,10.6721 5.3435,7.1951 6.2032,12.6808 2.1095,13.4604 -1.1883,0.2263 -3.7716,-1.5031 -5.7405,-3.8432 z m 12.1761,-2.7928 c -4.639,-7.5507 -11.2494,-20.7353 -12.0885,-24.1108 -0.6976,-2.8062 -0.3756,-3.9044 1.3375,-4.5618 4.7022,-1.8044 18.4597,19.4322 17.5757,27.1304 -0.5513,4.8007 -4.302,5.6483 -6.8247,1.5422 z"
         id="path10"
         sodipodi:nodetypes="ssscssssssscssscsssssssssssssssssssssscssssssssssssssssssssssssssssscssssssssssssssssssscssssssssssscssssssssssssssssssssssssssssssssssssssssscssscssscsssscccsssscsssssscsssscssssscssssssscsscssssssssscssscccsssssscssscscssscssscssssscsscsscsssscsssscscssssscssssssssssssscscsssscsssss" />
    </g>
  </g>
</svg>
