<svg width="124.50513mm" height="76.446732mm" viewBox="0 0 124.50513 76.446732" xmlns="http://www.w3.org/2000/svg">
    <path d="m -842.19684,-444.78099 c -1.72847,-0.84427 -1.68525,-1.12928 -1.73294,-1.99945 l -0.3297,-6.01547 c -0.19862,-3.62266 -0.10888,-6.37349 0.22563,-6.91546 0.30558,-0.49503 2.94868,-2.98652 5.87351,-5.53673 5.94054,-5.17967 7.03632,-5.48763 11.39566,-3.20293 l 2.2782,1.19399 c 0,0 0.36249,-0.0867 0.39471,-1.19624 0.0201,-0.6925 0.0514,-4.4234 0.27887,-8.36766 0.49092,-8.39909 0.62172,-8.53833 5.5003,-4.82927 l 2.57519,1.95785 c 1.10277,0.71653 0.48027,10.81483 0.29517,16.09102 l -0.50277,14.32952 c -0.0763,2.1749 -0.9617,2.55178 -1.92332,3.22415 -2.18439,1.52734 -11.99354,9.0872 -13.62403,8.05661 -3.68233,-2.32749 -7.12394,-5.041 -10.70448,-6.78993 z m 14.48816,-5.60485 c 1.75537,-1.42994 1.89937,-1.76753 1.70373,-3.99472 -0.2341,-2.66783 -2.18435,-5.07597 -4.20738,-5.19529 -0.63824,-0.0361 -1.88059,0.60299 -2.76089,1.42368 -1.26349,1.17767 -1.63172,2.03784 -1.74733,4.08139 -0.1309,2.31443 0.041,2.72028 1.61783,3.82293 2.4159,1.68944 3.17484,1.67 5.39404,-0.13799 z m -80.67602,6.42384 c -0.8518,-1.15313 -1.29,-11.55777 -0.6638,-16.42846 0.1826,-1.42009 0.7915,-2.11861 1.6391,-2.72732 3.2549,-2.33765 10.6258,-7.63824 11.0463,-7.61445 1.825,0.10325 12.21628,7.79022 13.09858,9.6898 0.54118,1.16476 1.12922,10.71978 0.90434,14.69321 -0.11346,2.0071 -0.46532,2.9976 -1.30527,3.67558 -1.10464,0.89151 -1.2666,0.85232 -4.10967,-0.99509 -1.6281,-1.05773 -3.2452,-2.30932 -3.5937,-2.78121 -0.34878,-0.47195 -0.49898,-4.28186 -0.52888,-6.7874 -0.1031,-3.84103 -1.2026,-4.10026 -3.2037,-5.82527 -0.8984,-0.77445 -1.1122,-0.78484 -2.1902,-0.009 -2.7037,1.94534 -3.2526,2.41434 -3.3192,4.07831 l -0.2842,7.11063 c -0.086,2.15515 -0.904,2.27693 -2.5507,3.223 -2.7693,1.59106 -4.0255,1.93453 -4.939,0.69782 z m 106.17607,3.70696 c -2.84312,-1.86204 -5.54617,-3.88892 -6.00695,-4.50423 -1.00395,-1.34116 -1.33924,-9.36037 -0.49957,-13.87594 0,0 0.26348,-1.13258 0.31791,-1.70968 0.0995,-1.05481 1.59681,-2.00175 4.96524,-4.1543 7.34918,-4.6964 7.17571,-4.44004 12.85829,-0.37011 5.15471,3.69178 5.86335,4.57744 5.71794,7.14753 -0.1115,1.9707 -0.28485,3.03882 -3.23951,4.7711 -3.08649,1.80958 -4.45531,1.57315 -4.32144,-0.79297 0.0877,-1.55118 -0.26285,-2.25909 -1.74847,-3.53125 -3.05424,-2.61527 -6.85223,-1.40297 -6.81874,3.57057 0.0197,2.92201 -0.0779,3.16269 1.58077,4.20616 4.89246,3.07774 9.73144,7.03631 9.65786,7.90064 -0.0948,1.10382 -5.2011,4.90426 -6.44938,4.7991 -0.46453,-0.0391 -3.17082,-1.59461 -6.01395,-3.45662 z" transform="translate(-122.50209,-129.64583) translate(1031.8462,613.61815)"/>
    <path d="m -863.90109,-469.08383 c -2.03873,0.0684 -4.16362,1.49356 -7.86877,4.71496 -1.56149,1.35762 -4.44739,3.80885 -4.53409,4.66173 0,0 -0.20051,3.54644 -0.22531,5.61413 -0.1201,10.00692 0.14052,9.79839 5.93039,13.25862 3.15478,1.88541 5.83231,4.60319 8.73022,2.62361 1.30745,-0.89313 2.25354,-1.69845 4.74338,-3.20497 2.48946,-1.50651 4.83419,-3.06962 5.21001,-3.47369 0.60433,-0.64939 0.62849,-6.20009 0.0698,-15.96853 -0.0609,-1.06824 -4.6438,-4.99005 -8.15609,-6.97942 -1.48385,-0.84044 -2.67626,-1.28751 -3.89951,-1.24644 z m 67.25688,12.6137 c -0.49197,0.0132 -0.96239,0.26258 -1.54306,0.71882 -2.38167,1.87131 1.20382,6.24539 3.17603,4.83795 1.84094,-1.31375 1.86665,-3.42512 0.31523,-4.6483 -0.80552,-0.63508 -1.39064,-0.92345 -1.9482,-0.90847 z m -51.61959,15.32982 c -1.4567,-0.0824 -4.02922,1.52858 -8.81445,5.51956 -5.0617,4.22142 -5.05878,4.21208 -4.43539,12.77803 0.43246,5.94109 2.79441,8.94186 6.72311,8.5416 2.5233,-0.25706 3.70508,-2.16671 3.77238,-8.82014 0.0642,-6.3587 -0.68018,-8.12303 -1.77871,-7.9437 -1.34529,0.21962 -1.1524,1.97074 -1.27744,6.04821 -0.10696,3.46993 0.005,5.76324 -0.37568,6.38669 -0.73254,1.20042 -2.59169,0.94476 -3.20084,-0.17828 -0.21217,-0.39073 -0.83876,-2.15742 -1.19476,-5.22862 -0.22208,-1.9159 -0.2881,-5.42458 0.26148,-6.01049 0.62133,-0.66241 8.97616,-8.29608 10.17096,-7.76593 4.51252,2.00229 11.69146,5.82169 11.79308,7.40678 l 0.25218,5.42551 c 0.25664,5.51674 -0.34598,6.15224 -2.14819,7.61194 -1.02597,0.83099 -3.46628,2.54149 -5.32319,4.11189 -1.21203,0.88263 -3.48073,2.5393 -4.03025,2.03915 -0.42818,-0.38971 -1.85466,-1.36942 -1.85466,-1.36942 -3.68429,-1.99545 -4.96491,0.69267 -1.56218,3.37757 2.19012,1.66787 4.35774,2.25136 6.39185,1.04283 2.23102,-1.32551 5.0088,-3.43954 7.17786,-5.20744 1.99185,-1.62346 4.10374,-3.08949 4.15944,-4.98677 0.042,-1.4315 0.12609,-4.29431 0.12609,-4.29431 0.22117,-7.53955 -0.0471,-9.71282 -1.49397,-11.04739 -1.78631,-1.64752 -12.24625,-7.37547 -13.33872,-7.43727 z m 4.18218,10.04848 c -0.15809,-10e-4 -0.31988,0.002 -0.48576,0.0114 -4.80192,0.26783 -6.9566,4.0314 -4.01475,7.32617 1.40557,1.57415 2.61812,1.46754 4.56407,1.31774 1.91695,-0.14751 2.23093,-0.0206 2.18023,0.87954 -0.0751,1.32895 -1.75506,2.12397 -4.1951,1.98592 -2.37244,-0.13423 -3.44923,0.71705 -2.76624,2.18695 1.01392,2.18296 7.97281,1.03578 9.5188,-1.49758 1.9228,-3.15073 0.24755,-6.24581 -3.40237,-6.45232 -2.67693,-0.15145 -4.80242,-1.33092 -3.29696,-2.16835 0.46007,-0.25585 1.91258,-0.40899 3.22771,-0.33899 1.65174,0.0875 2.40439,-0.11274 2.43499,-0.64803 0.0782,-1.38247 -1.39343,-2.58014 -3.76462,-2.60242 z" fill="#7fc728" transform="translate(-122.50209,-129.64583) translate(1031.8462,613.61815)"/>
</svg>
