<svg width="141" height="48" viewBox="0 0 141 48" fill="none" xmlns="http://www.w3.org/2000/svg">
<path d="M31.2691 8.34019L7.73066 33.6538C7.41823 35.4148 8.61823 35.6183 9.25729 35.4998C9.37563 35.4288 14.6679 30.5863 34.8904 11.784C36.133 8.87263 33.0798 7.06196 31.2691 8.34019Z" fill="#2C2C2C"/>
<path d="M36.0308 12.7728L12.4924 38.0864C12.18 39.8475 13.38 40.0509 14.019 39.9325C14.1373 39.8615 19.4297 35.0189 39.6521 16.2166C40.8947 13.3052 37.8415 11.4946 36.0308 12.7728Z" fill="#2C2C2C"/>
<path d="M15.031 6.86412L6.36825 16.876C6.19074 18.935 7.46884 18.8285 8.32091 18.4025L18.0487 9.88179C19.7884 8.10647 16.8416 5.26631 15.031 6.86412Z" fill="#2C2C2C"/>
<path d="M37.8044 29.8006L29.1417 39.8125C28.9642 41.8716 30.2423 41.7651 31.0944 41.339L40.8222 32.8183C42.5618 31.043 39.6151 28.2028 37.8044 29.8006Z" fill="#2C2C2C"/>
<path d="M24.5823 5.79701L5.19767 26.8148C4.77163 28.4337 5.99057 28.7674 6.65329 28.7319C6.8308 28.6964 11.3752 24.7414 28.1326 9.20529C29.6237 7.18164 26.6769 4.16388 24.5823 5.79701Z" fill="#2C2C2C"/>
<path d="M38.8175 19.3579L19.1365 40.6555C18.704 42.296 19.9415 42.6342 20.6144 42.5983C20.7946 42.5623 25.4085 38.5546 42.4221 22.8116C43.936 20.761 40.9442 17.703 38.8175 19.3579Z" fill="#2C2C2C"/>
<path d="M69.0204 30.376C67.4858 31.9106 65.5979 32.6779 63.3566 32.6779C61.1153 32.6779 59.2273 31.9106 57.6927 30.376C56.1379 28.8213 55.3605 26.9333 55.3605 24.7122C55.3605 22.4911 56.1379 20.6031 57.6927 19.0484C59.2273 17.5138 61.1153 16.7465 63.3566 16.7465C65.5979 16.7465 67.4858 17.5138 69.0204 19.0484C70.5752 20.6031 71.3526 22.4911 71.3526 24.7122C71.3526 26.9333 70.5752 28.8213 69.0204 30.376ZM58.6316 24.7122C58.6316 26.0853 59.086 27.2261 59.9946 28.1347C60.9032 29.0434 62.0239 29.4977 63.3566 29.4977C64.6892 29.4977 65.8099 29.0434 66.7185 28.1347C67.6271 27.2261 68.0815 26.0853 68.0815 24.7122C68.0815 23.3392 67.6271 22.1983 66.7185 21.2897C65.8099 20.381 64.6892 19.9267 63.3566 19.9267C62.0239 19.9267 60.9032 20.381 59.9946 21.2897C59.086 22.1983 58.6316 23.3392 58.6316 24.7122ZM83.0707 17.1402V20.2902H79.315V27.5593C79.315 28.1852 79.4563 28.6395 79.739 28.9222C80.0217 29.1847 80.4356 29.3362 80.9808 29.3765C81.5462 29.3967 82.2428 29.3866 83.0707 29.3463V32.2842C80.5669 32.5871 78.7698 32.375 77.6794 31.6481C76.5891 30.901 76.0439 29.5381 76.0439 27.5593V20.2902H73.2574V17.1402H76.0439V13.8691L79.315 12.8999V17.1402H83.0707ZM90.0622 17.1402V19.6844C90.8901 17.8066 92.4448 16.8676 94.7265 16.8676V20.4113C93.4948 20.3306 92.4045 20.6334 91.4554 21.32C90.5266 21.9863 90.0622 23.0968 90.0622 24.6516V32.2842H86.7911V17.1402H90.0622ZM109.851 30.376C108.316 31.9106 106.429 32.6779 104.187 32.6779C101.946 32.6779 100.058 31.9106 98.5234 30.376C96.9686 28.8213 96.1912 26.9333 96.1912 24.7122C96.1912 22.4911 96.9686 20.6031 98.5234 19.0484C100.058 17.5138 101.946 16.7465 104.187 16.7465C106.429 16.7465 108.316 17.5138 109.851 19.0484C111.406 20.6031 112.183 22.4911 112.183 24.7122C112.183 26.9333 111.406 28.8213 109.851 30.376ZM99.4623 24.7122C99.4623 26.0853 99.9166 27.2261 100.825 28.1347C101.734 29.0434 102.855 29.4977 104.187 29.4977C105.52 29.4977 106.641 29.0434 107.549 28.1347C108.458 27.2261 108.912 26.0853 108.912 24.7122C108.912 23.3392 108.458 22.1983 107.549 21.2897C106.641 20.381 105.52 19.9267 104.187 19.9267C102.855 19.9267 101.734 20.381 100.825 21.2897C99.9166 22.1983 99.4623 23.3392 99.4623 24.7122ZM123.682 10.6889V13.8388C121.3 13.6369 120.108 14.6364 120.108 16.8373V17.1402H123.682V20.2902H120.108V32.2842H116.837V20.2902H114.535V17.1402H116.837V16.8373C116.837 14.7374 117.423 13.1523 118.594 12.0821C119.765 11.012 121.461 10.5476 123.682 10.6889ZM133.124 28.1347L137.001 17.1402H140.484L134.668 32.7688C133.215 36.686 130.751 38.5437 127.278 38.3418V35.2827C128.288 35.3433 129.106 35.1312 129.732 34.6466C130.357 34.162 130.882 33.3846 131.307 32.3145L131.458 32.0116L125.037 17.1402H128.611L133.124 28.1347Z" fill="#2C2C2C"/>
</svg>
