<svg xmlns="http://www.w3.org/2000/svg" width="89" height="89" viewBox="0 0 89 89" fill="none">
<path d="M59.2696 27.8572C61.714 20.76 64.1526 13.6572 66.564 6.54903C66.8106 5.80918 66.4216 4.91036 65.6927 4.59797C64.9749 4.24722 64.0431 4.53768 63.5994 5.28305C57.5982 15.4438 51.7615 25.7308 46.2315 36.1875C37.9945 51.7633 30.771 67.8701 23.8272 84.0214C23.6519 84.4321 24.3371 84.7667 24.5509 84.3774C33.062 68.999 41.8198 53.7307 50.0349 38.1989C55.5538 27.7695 60.9797 17.2963 66.4327 6.85599C65.4408 6.434 64.4543 6.01196 63.4677 5.58997C61.4345 12.8133 59.4396 20.053 57.4393 27.2928C57.1594 28.3121 58.9296 28.8602 59.2696 27.8572Z" fill="black"/>
<path d="M13.8757 49.2642C25.0176 43.1314 34.3453 41.0763 44.1335 40.8351C53.9051 40.5994 64.1645 42.2765 76.7095 43.7179C77.7126 43.8384 78.611 43.1041 78.7316 42.1066C78.8522 41.1092 78.1509 40.183 77.1479 40.0624C64.7181 38.5169 54.3656 36.6919 44.0567 36.8289C33.7588 36.9549 23.5379 39.1307 11.8096 45.4608C10.7574 46.0308 10.3737 47.3516 10.9436 48.3982C11.5136 49.4506 12.829 49.8396 13.8757 49.2642Z" fill="black"/>
</svg>